<mxfile host="app.diagrams.net" modified="2022-11-12T04:05:44.545Z" agent="5.0 (Windows NT 10.0; Win64; x64) AppleWebKit/537.36 (KHTML, like Gecko) Chrome/106.0.0.0 Safari/537.36" etag="Qpl0gVg2YRW9cfAkJIKO" version="20.5.3" type="github">
  <diagram id="FwhGSWAk8xzBJ7DRyeHq" name="第 1 页">
    <mxGraphModel dx="2488" dy="443" grid="1" gridSize="10" guides="1" tooltips="1" connect="1" arrows="1" fold="1" page="1" pageScale="1" pageWidth="827" pageHeight="1169" math="0" shadow="0">
      <root>
        <mxCell id="0" />
        <mxCell id="1" parent="0" />
        <mxCell id="il-5_2EbzOGaTjw-V0iQ-1" value="用户" style="shape=umlActor;verticalLabelPosition=bottom;verticalAlign=top;html=1;outlineConnect=0;fillColor=#dae8fc;strokeColor=#6c8ebf;" parent="1" vertex="1">
          <mxGeometry x="-1200" y="120" width="30" height="60" as="geometry" />
        </mxCell>
        <mxCell id="il-5_2EbzOGaTjw-V0iQ-5" value="&lt;span style=&quot;font-weight: 400;&quot;&gt;勤工俭学管理系统&lt;/span&gt;" style="swimlane;whiteSpace=wrap;html=1;fontFamily=Times New Roman;fontSize=11;" parent="1" vertex="1">
          <mxGeometry x="-1056" y="30" width="100" height="240" as="geometry">
            <mxRectangle x="314" y="210" width="140" height="30" as="alternateBounds" />
          </mxGeometry>
        </mxCell>
        <mxCell id="il-5_2EbzOGaTjw-V0iQ-3" value="&lt;p style=&quot;line-height: 120%;&quot;&gt;&lt;font style=&quot;font-size: 11px;&quot;&gt;注册登入&lt;/font&gt;&lt;/p&gt;" style="ellipse;whiteSpace=wrap;html=1;" parent="il-5_2EbzOGaTjw-V0iQ-5" vertex="1">
          <mxGeometry x="20" y="40" width="60" height="40" as="geometry" />
        </mxCell>
        <mxCell id="il-5_2EbzOGaTjw-V0iQ-4" value="岗位申请" style="ellipse;whiteSpace=wrap;html=1;" parent="il-5_2EbzOGaTjw-V0iQ-5" vertex="1">
          <mxGeometry x="20" y="90" width="60" height="40" as="geometry" />
        </mxCell>
        <mxCell id="il-5_2EbzOGaTjw-V0iQ-6" value="上岗个人信息" style="ellipse;whiteSpace=wrap;html=1;" parent="il-5_2EbzOGaTjw-V0iQ-5" vertex="1">
          <mxGeometry x="20" y="140" width="60" height="40" as="geometry" />
        </mxCell>
        <mxCell id="il-5_2EbzOGaTjw-V0iQ-7" value="系统个人信息" style="ellipse;whiteSpace=wrap;html=1;" parent="il-5_2EbzOGaTjw-V0iQ-5" vertex="1">
          <mxGeometry x="20" y="190" width="60" height="40" as="geometry" />
        </mxCell>
        <mxCell id="il-5_2EbzOGaTjw-V0iQ-12" value="" style="endArrow=classic;html=1;rounded=0;fontFamily=Times New Roman;fontSize=11;entryX=0;entryY=0.5;entryDx=0;entryDy=0;" parent="1" target="il-5_2EbzOGaTjw-V0iQ-3" edge="1">
          <mxGeometry width="50" height="50" relative="1" as="geometry">
            <mxPoint x="-1170" y="140" as="sourcePoint" />
            <mxPoint x="-1120" y="90" as="targetPoint" />
          </mxGeometry>
        </mxCell>
        <mxCell id="il-5_2EbzOGaTjw-V0iQ-13" value="" style="endArrow=classic;html=1;rounded=0;fontFamily=Times New Roman;fontSize=11;entryX=-0.042;entryY=0.37;entryDx=0;entryDy=0;entryPerimeter=0;" parent="1" source="il-5_2EbzOGaTjw-V0iQ-1" target="il-5_2EbzOGaTjw-V0iQ-4" edge="1">
          <mxGeometry width="50" height="50" relative="1" as="geometry">
            <mxPoint x="-1160" y="140" as="sourcePoint" />
            <mxPoint x="-1060" y="120" as="targetPoint" />
          </mxGeometry>
        </mxCell>
        <mxCell id="il-5_2EbzOGaTjw-V0iQ-14" value="" style="endArrow=classic;html=1;rounded=0;fontFamily=Times New Roman;fontSize=11;" parent="1" source="il-5_2EbzOGaTjw-V0iQ-1" target="il-5_2EbzOGaTjw-V0iQ-6" edge="1">
          <mxGeometry width="50" height="50" relative="1" as="geometry">
            <mxPoint x="-1160" y="158.44347351174224" as="sourcePoint" />
            <mxPoint x="-1028.52" y="144.80000000000007" as="targetPoint" />
          </mxGeometry>
        </mxCell>
        <mxCell id="il-5_2EbzOGaTjw-V0iQ-15" value="" style="endArrow=classic;html=1;rounded=0;fontFamily=Times New Roman;fontSize=11;" parent="1" source="il-5_2EbzOGaTjw-V0iQ-1" target="il-5_2EbzOGaTjw-V0iQ-7" edge="1">
          <mxGeometry width="50" height="50" relative="1" as="geometry">
            <mxPoint x="-1160" y="163.35144953485008" as="sourcePoint" />
            <mxPoint x="-1040" y="230" as="targetPoint" />
          </mxGeometry>
        </mxCell>
        <mxCell id="il-5_2EbzOGaTjw-V0iQ-34" value="开始" style="rounded=1;whiteSpace=wrap;html=1;fontFamily=Times New Roman;fontSize=11;" parent="1" vertex="1">
          <mxGeometry x="390" y="620" width="80" height="30" as="geometry" />
        </mxCell>
        <mxCell id="il-5_2EbzOGaTjw-V0iQ-36" value="登入界面" style="rounded=0;whiteSpace=wrap;html=1;fontFamily=Times New Roman;fontSize=11;" parent="1" vertex="1">
          <mxGeometry x="390" y="680" width="80" height="30" as="geometry" />
        </mxCell>
        <mxCell id="il-5_2EbzOGaTjw-V0iQ-52" value="" style="edgeStyle=orthogonalEdgeStyle;rounded=0;orthogonalLoop=1;jettySize=auto;html=1;fontFamily=Times New Roman;fontSize=11;" parent="1" source="il-5_2EbzOGaTjw-V0iQ-37" target="il-5_2EbzOGaTjw-V0iQ-41" edge="1">
          <mxGeometry relative="1" as="geometry" />
        </mxCell>
        <mxCell id="il-5_2EbzOGaTjw-V0iQ-37" value="是否有账号" style="rhombus;whiteSpace=wrap;html=1;fontFamily=Times New Roman;fontSize=11;" parent="1" vertex="1">
          <mxGeometry x="390" y="740" width="80" height="40" as="geometry" />
        </mxCell>
        <mxCell id="il-5_2EbzOGaTjw-V0iQ-38" value="" style="endArrow=classic;html=1;rounded=0;fontFamily=Times New Roman;fontSize=11;exitX=0.5;exitY=1;exitDx=0;exitDy=0;entryX=0.5;entryY=0;entryDx=0;entryDy=0;" parent="1" source="il-5_2EbzOGaTjw-V0iQ-34" target="il-5_2EbzOGaTjw-V0iQ-36" edge="1">
          <mxGeometry width="50" height="50" relative="1" as="geometry">
            <mxPoint x="390" y="780" as="sourcePoint" />
            <mxPoint x="440" y="730" as="targetPoint" />
          </mxGeometry>
        </mxCell>
        <mxCell id="il-5_2EbzOGaTjw-V0iQ-39" value="" style="endArrow=classic;html=1;rounded=0;fontFamily=Times New Roman;fontSize=11;exitX=0.5;exitY=1;exitDx=0;exitDy=0;" parent="1" source="il-5_2EbzOGaTjw-V0iQ-36" target="il-5_2EbzOGaTjw-V0iQ-37" edge="1">
          <mxGeometry width="50" height="50" relative="1" as="geometry">
            <mxPoint x="430" y="710" as="sourcePoint" />
            <mxPoint x="429.76" y="739.9999999999999" as="targetPoint" />
          </mxGeometry>
        </mxCell>
        <mxCell id="il-5_2EbzOGaTjw-V0iQ-40" value="YES" style="endArrow=classic;html=1;rounded=0;fontFamily=Times New Roman;fontSize=11;entryX=0;entryY=0.5;entryDx=0;entryDy=0;" parent="1" edge="1">
          <mxGeometry width="50" height="50" relative="1" as="geometry">
            <mxPoint x="470" y="760" as="sourcePoint" />
            <mxPoint x="549.9999999999999" y="760" as="targetPoint" />
          </mxGeometry>
        </mxCell>
        <mxCell id="il-5_2EbzOGaTjw-V0iQ-41" value="登入界面" style="rounded=0;whiteSpace=wrap;html=1;fontFamily=Times New Roman;fontSize=11;" parent="1" vertex="1">
          <mxGeometry x="550" y="745" width="80" height="35" as="geometry" />
        </mxCell>
        <mxCell id="il-5_2EbzOGaTjw-V0iQ-46" value="注册界面" style="rounded=0;whiteSpace=wrap;html=1;fontFamily=Times New Roman;fontSize=11;" parent="1" vertex="1">
          <mxGeometry x="230" y="742.5" width="80" height="30" as="geometry" />
        </mxCell>
        <mxCell id="il-5_2EbzOGaTjw-V0iQ-47" value="NO" style="endArrow=classic;html=1;rounded=0;fontFamily=Times New Roman;fontSize=11;entryX=1;entryY=0.5;entryDx=0;entryDy=0;exitX=0;exitY=0.5;exitDx=0;exitDy=0;" parent="1" source="il-5_2EbzOGaTjw-V0iQ-37" target="il-5_2EbzOGaTjw-V0iQ-46" edge="1">
          <mxGeometry width="50" height="50" relative="1" as="geometry">
            <mxPoint x="480" y="770" as="sourcePoint" />
            <mxPoint x="559.9999999999999" y="770" as="targetPoint" />
            <Array as="points">
              <mxPoint x="320" y="760" />
            </Array>
          </mxGeometry>
        </mxCell>
        <mxCell id="il-5_2EbzOGaTjw-V0iQ-48" value="输入账号密码" style="shape=parallelogram;perimeter=parallelogramPerimeter;whiteSpace=wrap;html=1;fixedSize=1;fontFamily=Times New Roman;fontSize=11;" parent="1" vertex="1">
          <mxGeometry x="540" y="820" width="100" height="30" as="geometry" />
        </mxCell>
        <mxCell id="il-5_2EbzOGaTjw-V0iQ-49" value="输入账号、密码学号" style="shape=parallelogram;perimeter=parallelogramPerimeter;whiteSpace=wrap;html=1;fixedSize=1;fontFamily=Times New Roman;fontSize=11;" parent="1" vertex="1">
          <mxGeometry x="200" y="820" width="140" height="30" as="geometry" />
        </mxCell>
        <mxCell id="il-5_2EbzOGaTjw-V0iQ-50" value="账号是否合法" style="rhombus;whiteSpace=wrap;html=1;fontFamily=Times New Roman;fontSize=11;" parent="1" vertex="1">
          <mxGeometry x="220" y="890" width="100" height="50" as="geometry" />
        </mxCell>
        <mxCell id="il-5_2EbzOGaTjw-V0iQ-51" value="验证登入" style="rhombus;whiteSpace=wrap;html=1;fontFamily=Times New Roman;fontSize=11;" parent="1" vertex="1">
          <mxGeometry x="550" y="895" width="80" height="40" as="geometry" />
        </mxCell>
        <mxCell id="il-5_2EbzOGaTjw-V0iQ-54" value="" style="endArrow=classic;html=1;rounded=0;fontFamily=Times New Roman;fontSize=11;entryX=0.5;entryY=0;entryDx=0;entryDy=0;exitX=0.5;exitY=1;exitDx=0;exitDy=0;" parent="1" source="il-5_2EbzOGaTjw-V0iQ-41" target="il-5_2EbzOGaTjw-V0iQ-48" edge="1">
          <mxGeometry width="50" height="50" relative="1" as="geometry">
            <mxPoint x="500" y="840" as="sourcePoint" />
            <mxPoint x="550" y="790" as="targetPoint" />
          </mxGeometry>
        </mxCell>
        <mxCell id="il-5_2EbzOGaTjw-V0iQ-55" value="" style="endArrow=classic;html=1;rounded=0;fontFamily=Times New Roman;fontSize=11;" parent="1" source="il-5_2EbzOGaTjw-V0iQ-46" target="il-5_2EbzOGaTjw-V0iQ-49" edge="1">
          <mxGeometry width="50" height="50" relative="1" as="geometry">
            <mxPoint x="270" y="770" as="sourcePoint" />
            <mxPoint x="270" y="820" as="targetPoint" />
          </mxGeometry>
        </mxCell>
        <mxCell id="il-5_2EbzOGaTjw-V0iQ-56" value="" style="endArrow=classic;html=1;rounded=0;fontFamily=Times New Roman;fontSize=11;exitX=0.5;exitY=1;exitDx=0;exitDy=0;" parent="1" source="il-5_2EbzOGaTjw-V0iQ-48" target="il-5_2EbzOGaTjw-V0iQ-51" edge="1">
          <mxGeometry width="50" height="50" relative="1" as="geometry">
            <mxPoint x="590" y="860" as="sourcePoint" />
            <mxPoint x="589.6600000000001" y="890" as="targetPoint" />
          </mxGeometry>
        </mxCell>
        <mxCell id="il-5_2EbzOGaTjw-V0iQ-58" value="" style="endArrow=classic;html=1;rounded=0;fontFamily=Times New Roman;fontSize=11;" parent="1" source="il-5_2EbzOGaTjw-V0iQ-49" target="il-5_2EbzOGaTjw-V0iQ-50" edge="1">
          <mxGeometry width="50" height="50" relative="1" as="geometry">
            <mxPoint x="269.66" y="850" as="sourcePoint" />
            <mxPoint x="269.66" y="890" as="targetPoint" />
          </mxGeometry>
        </mxCell>
        <mxCell id="il-5_2EbzOGaTjw-V0iQ-60" value="结束" style="rounded=1;whiteSpace=wrap;html=1;fontFamily=Times New Roman;fontSize=11;" parent="1" vertex="1">
          <mxGeometry x="390" y="960" width="80" height="30" as="geometry" />
        </mxCell>
        <mxCell id="il-5_2EbzOGaTjw-V0iQ-61" value="" style="endArrow=classic;html=1;rounded=0;fontFamily=Times New Roman;fontSize=11;exitX=0.5;exitY=1;exitDx=0;exitDy=0;entryX=1;entryY=0.5;entryDx=0;entryDy=0;" parent="1" source="il-5_2EbzOGaTjw-V0iQ-51" target="il-5_2EbzOGaTjw-V0iQ-60" edge="1">
          <mxGeometry width="50" height="50" relative="1" as="geometry">
            <mxPoint x="470.34" y="952.5" as="sourcePoint" />
            <mxPoint x="470" y="1010" as="targetPoint" />
            <Array as="points">
              <mxPoint x="590" y="975" />
              <mxPoint x="470" y="975" />
            </Array>
          </mxGeometry>
        </mxCell>
        <mxCell id="il-5_2EbzOGaTjw-V0iQ-62" value="YES" style="edgeLabel;html=1;align=center;verticalAlign=middle;resizable=0;points=[];fontSize=11;fontFamily=Times New Roman;" parent="il-5_2EbzOGaTjw-V0iQ-61" vertex="1" connectable="0">
          <mxGeometry x="-0.656" y="-1" relative="1" as="geometry">
            <mxPoint as="offset" />
          </mxGeometry>
        </mxCell>
        <mxCell id="il-5_2EbzOGaTjw-V0iQ-63" value="" style="endArrow=classic;html=1;rounded=0;fontFamily=Times New Roman;fontSize=11;exitX=1;exitY=0.5;exitDx=0;exitDy=0;entryX=1;entryY=0.5;entryDx=0;entryDy=0;" parent="1" source="il-5_2EbzOGaTjw-V0iQ-51" target="il-5_2EbzOGaTjw-V0iQ-41" edge="1">
          <mxGeometry width="50" height="50" relative="1" as="geometry">
            <mxPoint x="650.689655172414" y="807.5" as="sourcePoint" />
            <mxPoint x="510.68965517241395" y="787.5" as="targetPoint" />
            <Array as="points">
              <mxPoint x="710" y="915" />
              <mxPoint x="710" y="763" />
            </Array>
          </mxGeometry>
        </mxCell>
        <mxCell id="il-5_2EbzOGaTjw-V0iQ-66" value="NO" style="edgeLabel;html=1;align=center;verticalAlign=middle;resizable=0;points=[];fontSize=11;fontFamily=Times New Roman;" parent="il-5_2EbzOGaTjw-V0iQ-63" vertex="1" connectable="0">
          <mxGeometry x="0.0176" relative="1" as="geometry">
            <mxPoint as="offset" />
          </mxGeometry>
        </mxCell>
        <mxCell id="il-5_2EbzOGaTjw-V0iQ-67" value="" style="endArrow=classic;html=1;rounded=0;fontFamily=Times New Roman;fontSize=11;exitX=0;exitY=0.5;exitDx=0;exitDy=0;" parent="1" source="il-5_2EbzOGaTjw-V0iQ-50" target="il-5_2EbzOGaTjw-V0iQ-46" edge="1">
          <mxGeometry width="50" height="50" relative="1" as="geometry">
            <mxPoint x="160" y="930" as="sourcePoint" />
            <mxPoint x="210" y="880" as="targetPoint" />
            <Array as="points">
              <mxPoint x="140" y="915" />
              <mxPoint x="140" y="760" />
            </Array>
          </mxGeometry>
        </mxCell>
        <mxCell id="il-5_2EbzOGaTjw-V0iQ-69" value="NO" style="edgeLabel;html=1;align=center;verticalAlign=middle;resizable=0;points=[];fontSize=11;fontFamily=Times New Roman;" parent="il-5_2EbzOGaTjw-V0iQ-67" vertex="1" connectable="0">
          <mxGeometry x="0.6608" y="-1" relative="1" as="geometry">
            <mxPoint as="offset" />
          </mxGeometry>
        </mxCell>
        <mxCell id="il-5_2EbzOGaTjw-V0iQ-68" value="" style="endArrow=classic;html=1;rounded=0;fontFamily=Times New Roman;fontSize=11;entryX=0;entryY=0.5;entryDx=0;entryDy=0;" parent="1" target="il-5_2EbzOGaTjw-V0iQ-36" edge="1">
          <mxGeometry width="50" height="50" relative="1" as="geometry">
            <mxPoint x="140" y="760" as="sourcePoint" />
            <mxPoint x="190" y="700" as="targetPoint" />
            <Array as="points">
              <mxPoint x="140" y="695" />
            </Array>
          </mxGeometry>
        </mxCell>
        <mxCell id="il-5_2EbzOGaTjw-V0iQ-70" value="YES" style="edgeLabel;html=1;align=center;verticalAlign=middle;resizable=0;points=[];fontSize=11;fontFamily=Times New Roman;" parent="il-5_2EbzOGaTjw-V0iQ-68" vertex="1" connectable="0">
          <mxGeometry x="0.0189" relative="1" as="geometry">
            <mxPoint as="offset" />
          </mxGeometry>
        </mxCell>
        <mxCell id="EPDi_HSpM-SoJ135HulO-22" value="" style="edgeStyle=orthogonalEdgeStyle;rounded=0;orthogonalLoop=1;jettySize=auto;html=1;" edge="1" parent="1" source="EPDi_HSpM-SoJ135HulO-17" target="EPDi_HSpM-SoJ135HulO-21">
          <mxGeometry relative="1" as="geometry" />
        </mxCell>
        <mxCell id="EPDi_HSpM-SoJ135HulO-24" value="" style="edgeStyle=orthogonalEdgeStyle;rounded=0;orthogonalLoop=1;jettySize=auto;html=1;" edge="1" parent="1" source="EPDi_HSpM-SoJ135HulO-17" target="EPDi_HSpM-SoJ135HulO-23">
          <mxGeometry relative="1" as="geometry">
            <Array as="points">
              <mxPoint x="-280" y="230" />
              <mxPoint x="-280" y="120" />
            </Array>
          </mxGeometry>
        </mxCell>
        <mxCell id="EPDi_HSpM-SoJ135HulO-17" value="学生" style="shape=umlActor;verticalLabelPosition=bottom;verticalAlign=top;html=1;outlineConnect=0;" vertex="1" parent="1">
          <mxGeometry x="-350" y="200" width="30" height="60" as="geometry" />
        </mxCell>
        <mxCell id="EPDi_HSpM-SoJ135HulO-18" value="&lt;pre&gt;数据库&lt;/pre&gt;" style="ellipse;whiteSpace=wrap;html=1;verticalAlign=top;" vertex="1" parent="1">
          <mxGeometry x="-30" y="150" width="120" height="60" as="geometry" />
        </mxCell>
        <mxCell id="EPDi_HSpM-SoJ135HulO-28" value="" style="edgeStyle=orthogonalEdgeStyle;rounded=0;orthogonalLoop=1;jettySize=auto;html=1;" edge="1" parent="1" source="EPDi_HSpM-SoJ135HulO-21" target="EPDi_HSpM-SoJ135HulO-27">
          <mxGeometry relative="1" as="geometry" />
        </mxCell>
        <mxCell id="EPDi_HSpM-SoJ135HulO-21" value="&lt;pre style=&quot;&quot;&gt;&lt;span style=&quot;background-color: initial; font-family: Helvetica; white-space: normal;&quot;&gt;就业岗位个人信息&lt;/span&gt;&lt;br&gt;&lt;/pre&gt;" style="ellipse;whiteSpace=wrap;html=1;verticalAlign=top;align=center;" vertex="1" parent="1">
          <mxGeometry x="-230" y="200" width="120" height="60" as="geometry" />
        </mxCell>
        <mxCell id="EPDi_HSpM-SoJ135HulO-23" value="&lt;pre&gt;&lt;span style=&quot;background-color: initial;&quot;&gt;个人中心&lt;/span&gt;&lt;/pre&gt;" style="ellipse;whiteSpace=wrap;html=1;verticalAlign=top;align=center;" vertex="1" parent="1">
          <mxGeometry x="-230" y="90" width="120" height="60" as="geometry" />
        </mxCell>
        <mxCell id="EPDi_HSpM-SoJ135HulO-25" value="提交信息" style="endArrow=open;endSize=12;dashed=1;html=1;rounded=0;exitX=1;exitY=0.5;exitDx=0;exitDy=0;entryX=0.436;entryY=-0.021;entryDx=0;entryDy=0;entryPerimeter=0;" edge="1" parent="1" source="EPDi_HSpM-SoJ135HulO-23" target="EPDi_HSpM-SoJ135HulO-18">
          <mxGeometry width="160" relative="1" as="geometry">
            <mxPoint x="-80" y="100" as="sourcePoint" />
            <mxPoint x="80" y="100" as="targetPoint" />
          </mxGeometry>
        </mxCell>
        <mxCell id="EPDi_HSpM-SoJ135HulO-26" value="提交信息" style="endArrow=open;endSize=12;dashed=1;html=1;rounded=0;exitX=1;exitY=0.5;exitDx=0;exitDy=0;entryX=0.11;entryY=0.804;entryDx=0;entryDy=0;entryPerimeter=0;" edge="1" parent="1" source="EPDi_HSpM-SoJ135HulO-21" target="EPDi_HSpM-SoJ135HulO-18">
          <mxGeometry width="160" relative="1" as="geometry">
            <mxPoint x="-100" y="130" as="sourcePoint" />
            <mxPoint x="30" y="150" as="targetPoint" />
          </mxGeometry>
        </mxCell>
        <mxCell id="EPDi_HSpM-SoJ135HulO-27" value="&lt;pre&gt;申请岗位&lt;/pre&gt;" style="ellipse;whiteSpace=wrap;html=1;verticalAlign=top;" vertex="1" parent="1">
          <mxGeometry x="-230" y="290" width="120" height="60" as="geometry" />
        </mxCell>
        <mxCell id="EPDi_HSpM-SoJ135HulO-29" value="提交信息" style="endArrow=open;endSize=12;dashed=1;html=1;rounded=0;exitX=1;exitY=0;exitDx=0;exitDy=0;" edge="1" parent="1" source="EPDi_HSpM-SoJ135HulO-27" target="EPDi_HSpM-SoJ135HulO-18">
          <mxGeometry width="160" relative="1" as="geometry">
            <mxPoint x="-117.5735931288068" y="218.78679656440352" as="sourcePoint" />
            <mxPoint x="40" y="160" as="targetPoint" />
          </mxGeometry>
        </mxCell>
        <mxCell id="EPDi_HSpM-SoJ135HulO-34" value="" style="edgeStyle=orthogonalEdgeStyle;rounded=0;orthogonalLoop=1;jettySize=auto;html=1;" edge="1" parent="1" source="EPDi_HSpM-SoJ135HulO-32" target="EPDi_HSpM-SoJ135HulO-33">
          <mxGeometry relative="1" as="geometry" />
        </mxCell>
        <mxCell id="EPDi_HSpM-SoJ135HulO-32" value="管理员" style="shape=umlActor;verticalLabelPosition=bottom;verticalAlign=top;html=1;" vertex="1" parent="1">
          <mxGeometry x="160" y="280" width="30" height="60" as="geometry" />
        </mxCell>
        <mxCell id="EPDi_HSpM-SoJ135HulO-33" value="&lt;pre&gt;审批学生&lt;/pre&gt;" style="ellipse;whiteSpace=wrap;html=1;verticalAlign=top;" vertex="1" parent="1">
          <mxGeometry x="30" y="280" width="120" height="60" as="geometry" />
        </mxCell>
        <mxCell id="EPDi_HSpM-SoJ135HulO-35" value="学生申请信息" style="endArrow=open;endSize=12;dashed=1;html=1;rounded=0;exitX=0.812;exitY=0.935;exitDx=0;exitDy=0;exitPerimeter=0;entryX=0;entryY=0.5;entryDx=0;entryDy=0;" edge="1" parent="1" source="EPDi_HSpM-SoJ135HulO-18" target="EPDi_HSpM-SoJ135HulO-33">
          <mxGeometry x="0.0514" y="13" width="160" relative="1" as="geometry">
            <mxPoint x="-117.32906664611073" y="308.9097685722153" as="sourcePoint" />
            <mxPoint x="14.602482088510897" y="167.17979987019066" as="targetPoint" />
            <mxPoint as="offset" />
          </mxGeometry>
        </mxCell>
        <mxCell id="EPDi_HSpM-SoJ135HulO-36" value="提交审批" style="endArrow=open;endSize=12;dashed=1;html=1;rounded=0;exitX=1;exitY=0;exitDx=0;exitDy=0;entryX=1;entryY=0.5;entryDx=0;entryDy=0;" edge="1" parent="1" source="EPDi_HSpM-SoJ135HulO-33" target="EPDi_HSpM-SoJ135HulO-18">
          <mxGeometry width="160" relative="1" as="geometry">
            <mxPoint x="77.44000000000005" y="166.10000000000002" as="sourcePoint" />
            <mxPoint x="125" y="220" as="targetPoint" />
          </mxGeometry>
        </mxCell>
        <mxCell id="EPDi_HSpM-SoJ135HulO-37" value="审批通过岗位信息" style="endArrow=open;endSize=12;dashed=1;html=1;rounded=0;exitX=0;exitY=0.333;exitDx=0;exitDy=0;entryX=0.5;entryY=0;entryDx=0;entryDy=0;exitPerimeter=0;" edge="1" parent="1" source="EPDi_HSpM-SoJ135HulO-18" target="EPDi_HSpM-SoJ135HulO-21">
          <mxGeometry width="160" relative="1" as="geometry">
            <mxPoint x="-100" y="240" as="sourcePoint" />
            <mxPoint x="-6.800000000000182" y="208.24" as="targetPoint" />
          </mxGeometry>
        </mxCell>
      </root>
    </mxGraphModel>
  </diagram>
</mxfile>
